<?xml version="1.0" encoding="UTF-8"?>
<svg width="100" height="100" viewBox="0 0 100 100" xmlns="http://www.w3.org/2000/svg">
    <!-- Hearts -->
    <g fill="#ff6b6b">
        <!-- Left heart -->
        <path d="M30,40 C30,30 20,30 20,40 C20,50 30,55 30,55 C30,55 40,50 40,40 C40,30 30,30 30,40 Z"/>
        <!-- Right heart -->
        <path d="M70,40 C70,30 60,30 60,40 C60,50 70,55 70,55 C70,55 80,50 80,40 C80,30 70,30 70,40 Z"/>
    </g>
    <!-- Couple silhouette -->
    <g fill="#6c757d">
        <!-- Left person -->
        <circle cx="30" cy="25" r="10"/>
        <path d="M20,40 L40,40 L45,70 L15,70 Z"/>
        <!-- Right person -->
        <circle cx="70" cy="25" r="10"/>
        <path d="M60,40 L80,40 L85,70 L55,70 Z"/>
    </g>
</svg> 